<svg width="1125" height="2000" viewBox="0 0 1125 2000" fill="none" xmlns="http://www.w3.org/2000/svg">
<g id="Frame 1" clip-path="url(#clip0)">
<rect width="1125" height="2000" fill="white" fill-opacity="0.4"/>
<path id="Vector 1" opacity="0.5" d="M885.391 20L905.391 0H1125.39V1300H1105.39L1085.39 1280V1260L1065.39 1240H1045.39L1025.39 1260L985.391 1300L905.391 1380V1400L865.391 1440V1480L825.391 1520H785.391L765.391 1500H705.391L685.391 1520L665.391 1540L645.391 1560H625.391L605.391 1540V1500L585.391 1480H565.391H545.391L525.391 1460V1440L505.391 1420L485.391 1400H465.391L445.391 1380L425.391 1360V1340L405.391 1320L385.391 1300V1280L365.391 1260V1240L345.391 1220H325.391L305.391 1200L285.391 1180L265.391 1160V1140L285.391 1120V1100L265.391 1080H245.391L225.391 1060V1040L205.391 1020L185.391 1000H165.391L145.391 980H125.391H105.391L85.3905 960L65.3905 940L45.3905 920L25.3905 900V840L45.3905 820H65.3905L85.3905 800H145.391L165.391 780L185.391 760H205.391L225.391 740H245.391L265.391 720H285.391H305.391L325.391 740V760L345.391 780V800L365.391 820V840L385.391 860L405.391 880L425.391 900L445.391 920H465.391L485.391 900V880L465.391 860L425.391 820L385.391 780V760L365.391 740L325.391 700V680L345.391 660V640L365.391 620H385.391L405.391 640H425.391L445.391 620V600L425.391 580V560V540V520L445.391 500V480L465.391 460H485.391L505.391 480H520.067L545.391 500L565.391 480V460L545.391 440L525.391 420V400L545.391 380H605.391L625.391 400V420L645.391 440H665.391L685.391 420V400V380L705.391 360L725.391 340H745.391L765.391 360H785.391L805.391 340V320L785.391 300V260L825.391 220V180L845.391 160H865.391L885.391 140V120L865.391 100V60L885.391 40V20Z" fill="#A2A2A2" stroke="black"/>
<path id="Vector 2" opacity="0.5" d="M100.481 1061L80.385 1041H60.2888L40.1925 1021H20.0963L0 1001V2001H1125.39V1401L1105.29 1381H1085.2L1065.1 1361L1045.01 1341H1024.91L1004.81 1361H984.717L964.62 1381L944.524 1401V1461L924.428 1481V1501V1521L904.332 1541L884.235 1561H783.754H743.562L723.465 1581H683.273L663.177 1601H582.792H562.695L542.599 1581L522.503 1561V1541L502.406 1521L482.31 1501L462.214 1481V1461L442.118 1441V1421L422.021 1401H401.925L381.829 1421V1501V1521V1541L401.925 1561H422.021L442.118 1581V1601L422.021 1621H401.925L381.829 1601V1581L361.733 1561V1481V1461V1441L341.636 1421V1401L321.54 1381V1361L301.444 1341L281.348 1321V1301L261.251 1281L241.155 1261L221.059 1241V1221V1201L200.963 1181L180.866 1161L160.77 1141L140.674 1121V1101L120.578 1081L100.481 1061Z" fill="#A1A1A1" stroke="black"/>
<path id="Vector 3" opacity="0.5" d="M820 20L840 0H0V700H100L120 680L140 660V640L120 620V580L80 540V520L100 500H140L160 520V540L180 560H200L220 540V520L200 500H180L160 480V460L180 440H200L220 460H240L260 480H280H300L320 460H340L360 440L380 420L400 400V380L420 360V340L440 320H460L480 300L500 280H520L540 260H560L580 280L600 300H640L680 260H700L740 220V200L720 180V140L740 120V100L720 80V40L740 20H760L780 40V60L760 80V120L740 140V160L760 180H780L800 160V120L820 100V20Z" fill="#A1A1A1" stroke="black"/>
<path id="routeline_210" d="M840 360H820H800L780 380L760 400L740 420L720 440L700 460L680 480H660H640H620L600 500L580 520L560 540L540 520L520 500H500H480L460 520V540V560V580L480 600V620V640V660L460 680H440L420 660H400L380 680V700L400 720L420 740V760V780L440 800L460 820L480 840L500 860V880V900V920L520 940L540 960L560 980L580 1000L600 1020V1040L580 1060H560H540H520H500H480L460 1080H440L420 1060L400 1040L380 1020L360 1000H340L320 1020L299.863 1040L280 1060L260 1080L240 1100L220 1120L200 1140L180 1160L160 1180H140L120 1160H100L80 1180L60 1200L40 1220H0" stroke="black"/>
<path id="routeline_211" d="M780 940H760H740H720H700H680H660H640H620H600M600 940H580H560H540H520M600 940L620 920L640 900L660 880L680 860V840V820V800V780V760V740V720V700V680V660L660 640L640 620L620 600L600 580L580 560L560 540M320 780L300 760H280H260L240 780V800M240 800H220H200L180 820V840L200 860L220 880L240 900V920M240 800L260 820L280 840L300 860L320 880L340 900L360 920L380 940L400 960L420 980L440 1000L460 1020L480 1040V1060M240 920L220 940H200L180 920L160 900L140 880L120 860L100 840H80L60 860V880L80 900L100 920L120 940H140L160 960L180 980L200 1000L220 1020L240 1040L260 1060V1080M240 920L260 940L280 960L300 980V1000V1020V1040" stroke="black"/>
<path id="routeline_202" d="M500 1320L480 1300L460 1280H440L420 1300V1320L440 1340L460 1360L480 1380H500L520 1400V1420V1440L540 1460H560H580L600 1480V1500L620 1520V1540V1560V1580V1600V1620H600H580H560H540L520 1600H500L480 1620L460 1640H440" stroke="black"/>
<path id="routeline_95" d="M900 1620L880 1600L860 1580H840L820 1600H800L780 1580H760L740 1600L720 1620H700H680H660H640H620M520 1600L500 1580L480 1560V1540V1520L460 1500H440L420 1520V1540L440 1560L460 1580V1600V1620L440 1640" stroke="black"/>
<path id="routeline_201" d="M880 840V860V880V900L900 920L920 940L940 960L960 980L980 1000L1000 1020L1020 1040L1040 1060V1080V1100V1120L1060 1140L1080 1160L1100 1180V1200L1080 1220H1060L1040 1200H1020L1000 1220L980 1240L960 1260L940 1280L920 1300L900 1320L880 1340L860 1360L840 1380V1400V1420V1440V1460L820 1480H800H780L760 1460H740H720H700H680L660 1480L640 1500L620 1520" stroke="black"/>
<path id="routeline_200" d="M600 1020L620 1040L640 1060L660 1080L680 1100L700 1120V1140V1160V1180V1200L680 1220H660L640 1200H620L600 1220V1240L620 1260V1280V1300M620 1300L640 1320L660 1340V1360V1380V1400M620 1300L600 1280L580 1260L560 1240L540 1220L520 1200L500 1180L480 1160L460 1140L440 1120V1100V1080M660 1400L640 1420L620 1440V1460V1480V1500V1520M660 1400H640H620H600H580H560H540H520" stroke="black"/>
<g id="popup_arna">
<path id="Vector" d="M390.533 1633.33V1621.25C390.533 1615.79 386.111 1611.37 380.656 1611.37H249.377C243.922 1611.37 239.5 1615.79 239.5 1621.25L239.5 1640L239.5 1658.75C239.5 1664.21 243.922 1668.63 249.377 1668.63H380.656C386.111 1668.63 390.533 1664.21 390.533 1658.75V1646.67L427.624 1640.49V1639.51L390.533 1633.33Z" fill="white" stroke="black"/>
<g id="Group 8">
<g id="Group 5">
<rect id="Rectangle 4" x="249.377" y="1641.48" width="37.5083" height="16.7392" rx="3" fill="#BE0000"/>
</g>
<path id="95" d="M264.59 1651.39C264.002 1651.97 263.314 1652.26 262.528 1652.26C261.523 1652.26 260.718 1651.91 260.114 1651.23C259.509 1650.53 259.207 1649.6 259.207 1648.43C259.207 1647.69 259.369 1647 259.692 1646.38C260.02 1645.76 260.476 1645.27 261.059 1644.93C261.642 1644.58 262.299 1644.41 263.028 1644.41C263.778 1644.41 264.444 1644.59 265.028 1644.97C265.611 1645.34 266.064 1645.88 266.387 1646.59C266.71 1647.29 266.874 1648.09 266.879 1649V1649.84C266.879 1651.73 266.408 1653.22 265.465 1654.3C264.523 1655.39 263.187 1655.97 261.457 1656.04L260.903 1656.05V1654.16L261.403 1654.16C263.366 1654.07 264.429 1653.15 264.59 1651.39ZM263.082 1650.53C263.447 1650.53 263.759 1650.44 264.02 1650.25C264.286 1650.06 264.486 1649.84 264.621 1649.57V1648.64C264.621 1647.88 264.476 1647.28 264.184 1646.86C263.892 1646.44 263.502 1646.23 263.012 1646.23C262.559 1646.23 262.187 1646.44 261.895 1646.85C261.603 1647.26 261.457 1647.78 261.457 1648.41C261.457 1649.03 261.598 1649.54 261.879 1649.94C262.166 1650.33 262.567 1650.53 263.082 1650.53ZM268.832 1650.34L269.489 1644.56H275.864V1646.45H271.34L271.059 1648.89C271.595 1648.6 272.166 1648.46 272.77 1648.46C273.853 1648.46 274.702 1648.8 275.317 1649.47C275.931 1650.14 276.239 1651.08 276.239 1652.29C276.239 1653.02 276.082 1653.68 275.77 1654.27C275.463 1654.84 275.02 1655.29 274.442 1655.62C273.864 1655.94 273.181 1656.09 272.395 1656.09C271.707 1656.09 271.069 1655.96 270.481 1655.68C269.892 1655.4 269.426 1655.01 269.082 1654.5C268.744 1653.99 268.564 1653.42 268.543 1652.77H270.778C270.825 1653.25 270.989 1653.62 271.27 1653.88C271.556 1654.14 271.929 1654.27 272.387 1654.27C272.898 1654.27 273.291 1654.09 273.567 1653.73C273.843 1653.36 273.981 1652.84 273.981 1652.16C273.981 1651.52 273.822 1651.02 273.504 1650.68C273.187 1650.34 272.736 1650.16 272.153 1650.16C271.616 1650.16 271.181 1650.3 270.848 1650.59L270.629 1650.79L268.832 1650.34Z" fill="white"/>
</g>
<g id="Group 9">
<g id="Group 6">
<rect id="Rectangle 4_2" x="296.262" y="1641.48" width="37.5083" height="16.7392" rx="3" fill="#BE0000"/>
</g>
<path id="200" d="M309.678 1655.94H301.881V1654.39L305.561 1650.47C306.066 1649.92 306.438 1649.44 306.678 1649.02C306.923 1648.61 307.045 1648.22 307.045 1647.85C307.045 1647.35 306.917 1646.95 306.662 1646.66C306.407 1646.37 306.042 1646.23 305.568 1646.23C305.058 1646.23 304.654 1646.4 304.357 1646.76C304.066 1647.11 303.92 1647.57 303.92 1648.14H301.654C301.654 1647.45 301.818 1646.82 302.147 1646.24C302.48 1645.67 302.949 1645.22 303.553 1644.9C304.157 1644.57 304.842 1644.41 305.607 1644.41C306.779 1644.41 307.688 1644.69 308.334 1645.25C308.985 1645.81 309.311 1646.61 309.311 1647.63C309.311 1648.2 309.165 1648.77 308.873 1649.35C308.581 1649.94 308.081 1650.61 307.373 1651.39L304.787 1654.12H309.678V1655.94ZM318.725 1651.23C318.725 1652.81 318.399 1654.01 317.748 1654.84C317.097 1655.68 316.144 1656.09 314.889 1656.09C313.649 1656.09 312.701 1655.69 312.045 1654.87C311.389 1654.05 311.053 1652.88 311.037 1651.35V1649.26C311.037 1647.67 311.365 1646.46 312.022 1645.64C312.683 1644.82 313.634 1644.41 314.873 1644.41C316.113 1644.41 317.061 1644.82 317.717 1645.63C318.373 1646.45 318.709 1647.61 318.725 1649.14V1651.23ZM316.467 1648.94C316.467 1647.99 316.337 1647.31 316.076 1646.88C315.821 1646.45 315.42 1646.23 314.873 1646.23C314.342 1646.23 313.949 1646.44 313.693 1646.85C313.443 1647.26 313.311 1647.9 313.295 1648.77V1651.53C313.295 1652.46 313.42 1653.15 313.67 1653.6C313.925 1654.05 314.331 1654.27 314.889 1654.27C315.441 1654.27 315.839 1654.06 316.084 1653.63C316.329 1653.19 316.456 1652.53 316.467 1651.64V1648.94ZM327.912 1651.23C327.912 1652.81 327.587 1654.01 326.936 1654.84C326.285 1655.68 325.331 1656.09 324.076 1656.09C322.837 1656.09 321.889 1655.69 321.232 1654.87C320.576 1654.05 320.24 1652.88 320.225 1651.35V1649.26C320.225 1647.67 320.553 1646.46 321.209 1645.64C321.871 1644.82 322.821 1644.41 324.061 1644.41C325.3 1644.41 326.248 1644.82 326.904 1645.63C327.561 1646.45 327.897 1647.61 327.912 1649.14V1651.23ZM325.654 1648.94C325.654 1647.99 325.524 1647.31 325.264 1646.88C325.009 1646.45 324.607 1646.23 324.061 1646.23C323.529 1646.23 323.136 1646.44 322.881 1646.85C322.631 1647.26 322.498 1647.9 322.482 1648.77V1651.53C322.482 1652.46 322.607 1653.15 322.857 1653.6C323.113 1654.05 323.519 1654.27 324.076 1654.27C324.628 1654.27 325.027 1654.06 325.272 1653.63C325.516 1653.19 325.644 1652.53 325.654 1651.64V1648.94Z" fill="white"/>
</g>
<g id="Group 10">
<g id="Group 7">
<rect id="Rectangle 4_3" x="343.148" y="1641.48" width="37.5083" height="16.7392" rx="3" fill="#BE0000"/>
</g>
<path id="201" d="M356.563 1655.94H348.766V1654.39L352.446 1650.47C352.951 1649.92 353.324 1649.44 353.563 1649.02C353.808 1648.61 353.93 1648.22 353.93 1647.85C353.93 1647.35 353.803 1646.95 353.548 1646.66C353.292 1646.37 352.928 1646.23 352.454 1646.23C351.943 1646.23 351.54 1646.4 351.243 1646.76C350.951 1647.11 350.805 1647.57 350.805 1648.14H348.54C348.54 1647.45 348.704 1646.82 349.032 1646.24C349.365 1645.67 349.834 1645.22 350.438 1644.9C351.042 1644.57 351.727 1644.41 352.493 1644.41C353.665 1644.41 354.574 1644.69 355.219 1645.25C355.87 1645.81 356.196 1646.61 356.196 1647.63C356.196 1648.2 356.05 1648.77 355.758 1649.35C355.467 1649.94 354.967 1650.61 354.258 1651.39L351.673 1654.12H356.563V1655.94ZM365.61 1651.23C365.61 1652.81 365.285 1654.01 364.633 1654.84C363.982 1655.68 363.029 1656.09 361.774 1656.09C360.535 1656.09 359.587 1655.69 358.93 1654.87C358.274 1654.05 357.938 1652.88 357.923 1651.35V1649.26C357.923 1647.67 358.251 1646.46 358.907 1645.64C359.568 1644.82 360.519 1644.41 361.758 1644.41C362.998 1644.41 363.946 1644.82 364.602 1645.63C365.258 1646.45 365.594 1647.61 365.61 1649.14V1651.23ZM363.352 1648.94C363.352 1647.99 363.222 1647.31 362.962 1646.88C362.706 1646.45 362.305 1646.23 361.758 1646.23C361.227 1646.23 360.834 1646.44 360.579 1646.85C360.329 1647.26 360.196 1647.9 360.18 1648.77V1651.53C360.18 1652.46 360.305 1653.15 360.555 1653.6C360.811 1654.05 361.217 1654.27 361.774 1654.27C362.326 1654.27 362.725 1654.06 362.969 1653.63C363.214 1653.19 363.342 1652.53 363.352 1651.64V1648.94ZM372.626 1655.94H370.368V1647.23L367.673 1648.07V1646.23L372.383 1644.55H372.626V1655.94Z" fill="white"/>
</g>
<path id="Arna terminal" d="M254.973 1628.64H250.207L249.137 1631.6H247.59L251.933 1620.23H253.246L257.598 1631.6H256.058L254.973 1628.64ZM250.66 1627.4H254.527L252.59 1622.08L250.66 1627.4ZM262.988 1624.45C262.769 1624.41 262.532 1624.39 262.277 1624.39C261.329 1624.39 260.686 1624.8 260.348 1625.6V1631.6H258.902V1623.15H260.308L260.332 1624.13C260.806 1623.37 261.478 1623 262.348 1623C262.629 1623 262.842 1623.03 262.988 1623.1V1624.45ZM265.691 1623.15L265.738 1624.21C266.384 1623.4 267.228 1623 268.269 1623C270.056 1623 270.957 1624 270.973 1626.02V1631.6H269.527V1626.01C269.522 1625.4 269.381 1624.95 269.105 1624.66C268.834 1624.37 268.41 1624.22 267.832 1624.22C267.363 1624.22 266.952 1624.35 266.598 1624.6C266.243 1624.85 265.967 1625.18 265.769 1625.58V1631.6H264.324V1623.15H265.691ZM278.371 1631.6C278.288 1631.44 278.22 1631.14 278.168 1630.71C277.496 1631.41 276.694 1631.76 275.762 1631.76C274.928 1631.76 274.243 1631.53 273.707 1631.06C273.176 1630.58 272.91 1629.99 272.91 1629.26C272.91 1628.38 273.243 1627.7 273.91 1627.21C274.582 1626.72 275.525 1626.48 276.738 1626.48H278.144V1625.82C278.144 1625.31 277.993 1624.91 277.691 1624.61C277.389 1624.31 276.944 1624.16 276.355 1624.16C275.84 1624.16 275.407 1624.29 275.058 1624.55C274.709 1624.81 274.535 1625.13 274.535 1625.5H273.082C273.082 1625.07 273.23 1624.67 273.527 1624.28C273.829 1623.88 274.236 1623.57 274.746 1623.34C275.262 1623.11 275.827 1623 276.441 1623C277.415 1623 278.178 1623.24 278.73 1623.73C279.282 1624.21 279.569 1624.88 279.59 1625.74V1629.63C279.59 1630.4 279.689 1631.02 279.887 1631.48V1631.6H278.371ZM275.973 1630.5C276.426 1630.5 276.855 1630.39 277.262 1630.15C277.668 1629.92 277.962 1629.61 278.144 1629.24V1627.5H277.012C275.241 1627.5 274.355 1628.02 274.355 1629.06C274.355 1629.51 274.506 1629.87 274.808 1630.12C275.111 1630.38 275.499 1630.5 275.973 1630.5ZM287.785 1621.1V1623.15H289.363V1624.27H287.785V1629.51C287.785 1629.85 287.855 1630.1 287.996 1630.28C288.137 1630.44 288.376 1630.53 288.715 1630.53C288.881 1630.53 289.111 1630.5 289.402 1630.43V1631.6C289.022 1631.71 288.652 1631.76 288.293 1631.76C287.647 1631.76 287.16 1631.57 286.832 1631.18C286.504 1630.78 286.34 1630.23 286.34 1629.51V1624.27H284.801V1623.15H286.34V1621.1H287.785ZM294.566 1631.76C293.42 1631.76 292.488 1631.39 291.769 1630.64C291.051 1629.88 290.691 1628.87 290.691 1627.61V1627.35C290.691 1626.51 290.85 1625.76 291.168 1625.1C291.491 1624.44 291.939 1623.93 292.512 1623.56C293.09 1623.18 293.715 1623 294.387 1623C295.486 1623 296.34 1623.36 296.949 1624.08C297.558 1624.81 297.863 1625.84 297.863 1627.19V1627.79H292.137C292.157 1628.63 292.4 1629.3 292.863 1629.82C293.332 1630.33 293.926 1630.58 294.644 1630.58C295.155 1630.58 295.587 1630.48 295.941 1630.27C296.295 1630.06 296.605 1629.78 296.871 1629.44L297.754 1630.13C297.045 1631.22 295.983 1631.76 294.566 1631.76ZM294.387 1624.18C293.803 1624.18 293.314 1624.4 292.918 1624.82C292.522 1625.25 292.277 1625.84 292.183 1626.6H296.418V1626.5C296.376 1625.76 296.178 1625.19 295.824 1624.79C295.47 1624.39 294.991 1624.18 294.387 1624.18ZM303.629 1624.45C303.41 1624.41 303.173 1624.39 302.918 1624.39C301.97 1624.39 301.327 1624.8 300.988 1625.6V1631.6H299.543V1623.15H300.949L300.973 1624.13C301.446 1623.37 302.118 1623 302.988 1623C303.269 1623 303.483 1623.03 303.629 1623.1V1624.45ZM306.324 1623.15L306.363 1624.09C306.983 1623.36 307.819 1623 308.871 1623C310.053 1623 310.858 1623.45 311.285 1624.35C311.566 1623.95 311.931 1623.62 312.379 1623.37C312.832 1623.12 313.366 1623 313.98 1623C315.834 1623 316.777 1623.98 316.808 1625.94V1631.6H315.363V1626.03C315.363 1625.42 315.225 1624.97 314.949 1624.68C314.673 1624.37 314.209 1624.22 313.558 1624.22C313.022 1624.22 312.577 1624.38 312.223 1624.71C311.868 1625.02 311.663 1625.45 311.605 1626V1631.6H310.152V1626.07C310.152 1624.84 309.551 1624.22 308.348 1624.22C307.4 1624.22 306.751 1624.63 306.402 1625.43V1631.6H304.957V1623.15H306.324ZM320.566 1631.6H319.121V1623.15H320.566V1631.6ZM319.004 1620.91C319.004 1620.68 319.074 1620.48 319.215 1620.32C319.361 1620.15 319.574 1620.07 319.855 1620.07C320.137 1620.07 320.35 1620.15 320.496 1620.32C320.642 1620.48 320.715 1620.68 320.715 1620.91C320.715 1621.14 320.642 1621.34 320.496 1621.5C320.35 1621.65 320.137 1621.73 319.855 1621.73C319.574 1621.73 319.361 1621.65 319.215 1621.5C319.074 1621.34 319.004 1621.14 319.004 1620.91ZM324.254 1623.15L324.301 1624.21C324.946 1623.4 325.79 1623 326.832 1623C328.618 1623 329.519 1624 329.535 1626.02V1631.6H328.09V1626.01C328.084 1625.4 327.944 1624.95 327.668 1624.66C327.397 1624.37 326.973 1624.22 326.394 1624.22C325.926 1624.22 325.514 1624.35 325.16 1624.6C324.806 1624.85 324.53 1625.18 324.332 1625.58V1631.6H322.887V1623.15H324.254ZM336.933 1631.6C336.85 1631.44 336.782 1631.14 336.73 1630.71C336.058 1631.41 335.256 1631.76 334.324 1631.76C333.491 1631.76 332.806 1631.53 332.269 1631.06C331.738 1630.58 331.473 1629.99 331.473 1629.26C331.473 1628.38 331.806 1627.7 332.473 1627.21C333.144 1626.72 334.087 1626.48 335.301 1626.48H336.707V1625.82C336.707 1625.31 336.556 1624.91 336.254 1624.61C335.952 1624.31 335.506 1624.16 334.918 1624.16C334.402 1624.16 333.97 1624.29 333.621 1624.55C333.272 1624.81 333.098 1625.13 333.098 1625.5H331.644C331.644 1625.07 331.793 1624.67 332.09 1624.28C332.392 1623.88 332.798 1623.57 333.308 1623.34C333.824 1623.11 334.389 1623 335.004 1623C335.978 1623 336.741 1623.24 337.293 1623.73C337.845 1624.21 338.131 1624.88 338.152 1625.74V1629.63C338.152 1630.4 338.251 1631.02 338.449 1631.48V1631.6H336.933ZM334.535 1630.5C334.988 1630.5 335.418 1630.39 335.824 1630.15C336.23 1629.92 336.525 1629.61 336.707 1629.24V1627.5H335.574C333.803 1627.5 332.918 1628.02 332.918 1629.06C332.918 1629.51 333.069 1629.87 333.371 1630.12C333.673 1630.38 334.061 1630.5 334.535 1630.5ZM341.988 1631.6H340.543V1619.6H341.988V1631.6Z" fill="black"/>
</g>
<circle id="terminal_arna" cx="427.542" cy="1640" r="15.1393" fill="#C70000"/>
<g id="popup_lonev&#195;&#165;g">
<path id="Vector_2" d="M468.75 871.75H495.174L512.411 932.731L512.886 934.41L513.373 932.734L531.077 871.75H591.25C596.359 871.75 600.5 867.609 600.5 862.5V827.5C600.5 822.391 596.359 818.25 591.25 818.25H468.75C463.641 818.25 459.5 822.391 459.5 827.5L459.5 845L459.5 862.5C459.5 867.609 463.641 871.75 468.75 871.75Z" fill="white" stroke="black"/>
<g id="Group 8_2">
<g id="Group 5_2">
<rect id="Rectangle 4_4" x="468.75" y="846.425" width="38.281" height="17.0841" rx="3" fill="#BE0000"/>
</g>
<path id="200_2" d="M481.615 860.875H473.818V859.328L477.498 855.406C478.003 854.854 478.376 854.372 478.615 853.961C478.86 853.549 478.982 853.159 478.982 852.789C478.982 852.284 478.855 851.888 478.6 851.602C478.344 851.31 477.98 851.164 477.506 851.164C476.995 851.164 476.592 851.341 476.295 851.695C476.003 852.044 475.857 852.505 475.857 853.078H473.592C473.592 852.385 473.756 851.753 474.084 851.18C474.417 850.607 474.886 850.159 475.49 849.836C476.094 849.508 476.779 849.344 477.545 849.344C478.717 849.344 479.626 849.625 480.271 850.188C480.923 850.75 481.248 851.544 481.248 852.57C481.248 853.133 481.102 853.706 480.811 854.289C480.519 854.872 480.019 855.552 479.311 856.328L476.725 859.055H481.615V860.875ZM490.662 856.172C490.662 857.745 490.337 858.948 489.686 859.781C489.034 860.615 488.081 861.031 486.826 861.031C485.587 861.031 484.639 860.622 483.982 859.805C483.326 858.987 482.99 857.815 482.975 856.289V854.195C482.975 852.607 483.303 851.401 483.959 850.578C484.62 849.755 485.571 849.344 486.811 849.344C488.05 849.344 488.998 849.753 489.654 850.57C490.311 851.383 490.646 852.552 490.662 854.078V856.172ZM488.404 853.875C488.404 852.932 488.274 852.247 488.014 851.82C487.758 851.388 487.357 851.172 486.811 851.172C486.279 851.172 485.886 851.378 485.631 851.789C485.381 852.195 485.248 852.833 485.232 853.703V856.469C485.232 857.396 485.357 858.086 485.607 858.539C485.863 858.987 486.269 859.211 486.826 859.211C487.378 859.211 487.777 858.995 488.021 858.563C488.266 858.13 488.394 857.469 488.404 856.578V853.875ZM499.85 856.172C499.85 857.745 499.524 858.948 498.873 859.781C498.222 860.615 497.269 861.031 496.014 861.031C494.774 861.031 493.826 860.622 493.17 859.805C492.514 858.987 492.178 857.815 492.162 856.289V854.195C492.162 852.607 492.49 851.401 493.146 850.578C493.808 849.755 494.758 849.344 495.998 849.344C497.238 849.344 498.186 849.753 498.842 850.57C499.498 851.383 499.834 852.552 499.85 854.078V856.172ZM497.592 853.875C497.592 852.932 497.462 852.247 497.201 851.82C496.946 851.388 496.545 851.172 495.998 851.172C495.467 851.172 495.074 851.378 494.818 851.789C494.568 852.195 494.436 852.833 494.42 853.703V856.469C494.42 857.396 494.545 858.086 494.795 858.539C495.05 858.987 495.456 859.211 496.014 859.211C496.566 859.211 496.964 858.995 497.209 858.563C497.454 858.13 497.581 857.469 497.592 856.578V853.875Z" fill="white"/>
</g>
<g id="Group 9_2">
<g id="Group 6_2">
<rect id="Rectangle 4_5" x="512.5" y="846.452" width="40.1808" height="17.9319" rx="3" fill="#BE0000"/>
</g>
<path id="204" d="M527.02 860.875H519.223V859.328L522.903 855.406C523.408 854.854 523.781 854.372 524.02 853.961C524.265 853.549 524.387 853.159 524.387 852.789C524.387 852.284 524.26 851.888 524.005 851.602C523.749 851.31 523.385 851.164 522.911 851.164C522.4 851.164 521.997 851.341 521.7 851.695C521.408 852.044 521.262 852.505 521.262 853.078H518.997C518.997 852.385 519.161 851.753 519.489 851.18C519.822 850.607 520.291 850.159 520.895 849.836C521.499 849.508 522.184 849.344 522.95 849.344C524.122 849.344 525.031 849.625 525.676 850.188C526.327 850.75 526.653 851.544 526.653 852.57C526.653 853.133 526.507 853.706 526.215 854.289C525.924 854.872 525.424 855.552 524.715 856.328L522.13 859.055H527.02V860.875ZM536.067 856.172C536.067 857.745 535.741 858.948 535.09 859.781C534.439 860.615 533.486 861.031 532.231 861.031C530.991 861.031 530.044 860.622 529.387 859.805C528.731 858.987 528.395 857.815 528.38 856.289V854.195C528.38 852.607 528.708 851.401 529.364 850.578C530.025 849.755 530.976 849.344 532.215 849.344C533.455 849.344 534.403 849.753 535.059 850.57C535.715 851.383 536.051 852.552 536.067 854.078V856.172ZM533.809 853.875C533.809 852.932 533.679 852.247 533.419 851.82C533.163 851.388 532.762 851.172 532.215 851.172C531.684 851.172 531.291 851.378 531.036 851.789C530.786 852.195 530.653 852.833 530.637 853.703V856.469C530.637 857.396 530.762 858.086 531.012 858.539C531.268 858.987 531.674 859.211 532.231 859.211C532.783 859.211 533.182 858.995 533.426 858.563C533.671 858.13 533.799 857.469 533.809 856.578V853.875ZM544.278 856.594H545.567V858.414H544.278V860.875H542.02V858.414H537.356L537.255 856.992L541.997 849.5H544.278V856.594ZM539.505 856.594H542.02V852.578L541.872 852.836L539.505 856.594Z" fill="white"/>
</g>
<g id="Group 10_2">
<g id="Group 7_2">
<rect id="Rectangle 4_6" x="556.25" y="846.425" width="38.281" height="17.0841" rx="3" fill="#BE0000"/>
</g>
<path id="210" d="M569.594 860.875H561.797V859.328L565.477 855.406C565.982 854.854 566.354 854.372 566.594 853.961C566.839 853.549 566.961 853.159 566.961 852.789C566.961 852.284 566.833 851.888 566.578 851.602C566.323 851.31 565.958 851.164 565.484 851.164C564.974 851.164 564.57 851.341 564.273 851.695C563.982 852.044 563.836 852.505 563.836 853.078H561.57C561.57 852.385 561.734 851.753 562.062 851.18C562.396 850.607 562.865 850.159 563.469 849.836C564.073 849.508 564.758 849.344 565.523 849.344C566.695 849.344 567.604 849.625 568.25 850.188C568.901 850.75 569.227 851.544 569.227 852.57C569.227 853.133 569.081 853.706 568.789 854.289C568.497 854.872 567.997 855.552 567.289 856.328L564.703 859.055H569.594V860.875ZM576.469 860.875H574.211V852.172L571.516 853.008V851.172L576.227 849.484H576.469V860.875ZM587.828 856.172C587.828 857.745 587.503 858.948 586.852 859.781C586.2 860.615 585.247 861.031 583.992 861.031C582.753 861.031 581.805 860.622 581.148 859.805C580.492 858.987 580.156 857.815 580.141 856.289V854.195C580.141 852.607 580.469 851.401 581.125 850.578C581.786 849.755 582.737 849.344 583.977 849.344C585.216 849.344 586.164 849.753 586.82 850.57C587.477 851.383 587.812 852.552 587.828 854.078V856.172ZM585.57 853.875C585.57 852.932 585.44 852.247 585.18 851.82C584.924 851.388 584.523 851.172 583.977 851.172C583.445 851.172 583.052 851.378 582.797 851.789C582.547 852.195 582.414 852.833 582.398 853.703V856.469C582.398 857.396 582.523 858.086 582.773 858.539C583.029 858.987 583.435 859.211 583.992 859.211C584.544 859.211 584.943 858.995 585.187 858.563C585.432 858.13 585.56 857.469 585.57 856.578V853.875Z" fill="white"/>
</g>
<path id="Lonev&#195;&#165;g" d="M484.558 836.943H489.948V838.169H483.05V826.794H484.558V836.943ZM491.05 833.865C491.05 833.037 491.211 832.292 491.534 831.63C491.862 830.969 492.315 830.459 492.894 830.099C493.477 829.74 494.141 829.56 494.886 829.56C496.037 829.56 496.966 829.959 497.675 830.755C498.388 831.552 498.745 832.612 498.745 833.935V834.037C498.745 834.86 498.586 835.599 498.269 836.255C497.956 836.906 497.506 837.414 496.917 837.779C496.334 838.143 495.662 838.326 494.901 838.326C493.756 838.326 492.826 837.927 492.112 837.13C491.404 836.334 491.05 835.279 491.05 833.966V833.865ZM492.503 834.037C492.503 834.974 492.719 835.727 493.151 836.294C493.589 836.862 494.172 837.146 494.901 837.146C495.636 837.146 496.219 836.86 496.651 836.287C497.084 835.709 497.3 834.901 497.3 833.865C497.3 832.938 497.078 832.188 496.636 831.615C496.198 831.037 495.615 830.748 494.886 830.748C494.172 830.748 493.597 831.031 493.159 831.599C492.722 832.167 492.503 832.979 492.503 834.037ZM501.925 829.716L501.972 830.779C502.618 829.966 503.461 829.56 504.503 829.56C506.289 829.56 507.19 830.568 507.206 832.584V838.169H505.761V832.576C505.756 831.966 505.615 831.516 505.339 831.224C505.068 830.932 504.644 830.787 504.065 830.787C503.597 830.787 503.185 830.912 502.831 831.162C502.477 831.412 502.201 831.74 502.003 832.146V838.169H500.558V829.716H501.925ZM512.894 838.326C511.748 838.326 510.815 837.951 510.097 837.201C509.378 836.445 509.019 835.438 509.019 834.177V833.912C509.019 833.073 509.177 832.326 509.495 831.669C509.818 831.008 510.266 830.492 510.839 830.123C511.417 829.748 512.042 829.56 512.714 829.56C513.813 829.56 514.667 829.922 515.276 830.646C515.886 831.37 516.19 832.406 516.19 833.755V834.357H510.464C510.485 835.19 510.727 835.865 511.19 836.38C511.659 836.891 512.253 837.146 512.972 837.146C513.482 837.146 513.914 837.042 514.269 836.834C514.623 836.625 514.933 836.349 515.198 836.005L516.081 836.693C515.373 837.781 514.31 838.326 512.894 838.326ZM512.714 830.748C512.131 830.748 511.641 830.961 511.245 831.388C510.849 831.81 510.604 832.404 510.511 833.169H514.745V833.06C514.703 832.326 514.506 831.758 514.151 831.357C513.797 830.951 513.318 830.748 512.714 830.748ZM520.55 836.209L522.644 829.716H524.12L521.089 838.169H519.987L516.925 829.716H518.401L520.55 836.209ZM530.604 838.169C530.521 838.003 530.453 837.706 530.401 837.279C529.729 837.977 528.927 838.326 527.995 838.326C527.162 838.326 526.477 838.091 525.94 837.623C525.409 837.149 525.144 836.55 525.144 835.826C525.144 834.945 525.477 834.263 526.144 833.779C526.815 833.289 527.758 833.044 528.972 833.044H530.378V832.38C530.378 831.875 530.227 831.474 529.925 831.177C529.623 830.875 529.177 830.724 528.589 830.724C528.073 830.724 527.641 830.854 527.292 831.115C526.943 831.375 526.769 831.69 526.769 832.06H525.315C525.315 831.638 525.464 831.232 525.761 830.841C526.063 830.445 526.469 830.133 526.979 829.904C527.495 829.675 528.06 829.56 528.675 829.56C529.649 829.56 530.412 829.805 530.964 830.294C531.516 830.779 531.802 831.448 531.823 832.302V836.193C531.823 836.969 531.922 837.586 532.12 838.044V838.169H530.604ZM528.206 837.068C528.659 837.068 529.089 836.951 529.495 836.716C529.901 836.482 530.196 836.177 530.378 835.802V834.068H529.245C527.474 834.068 526.589 834.586 526.589 835.623C526.589 836.076 526.74 836.43 527.042 836.685C527.344 836.94 527.732 837.068 528.206 837.068ZM530.511 827.084C530.511 827.537 530.349 827.917 530.026 828.224C529.703 828.526 529.305 828.677 528.831 828.677C528.352 828.677 527.951 828.524 527.628 828.216C527.31 827.909 527.151 827.531 527.151 827.084C527.151 826.636 527.31 826.253 527.628 825.935C527.951 825.617 528.352 825.459 528.831 825.459C529.31 825.459 529.709 825.617 530.026 825.935C530.349 826.253 530.511 826.636 530.511 827.084ZM527.925 827.084C527.925 827.328 528.011 827.539 528.183 827.716C528.36 827.893 528.576 827.982 528.831 827.982C529.081 827.982 529.295 827.896 529.472 827.724C529.649 827.552 529.737 827.339 529.737 827.084C529.737 826.828 529.649 826.612 529.472 826.435C529.3 826.253 529.086 826.162 528.831 826.162C528.571 826.162 528.354 826.253 528.183 826.435C528.011 826.617 527.925 826.834 527.925 827.084ZM533.745 833.873C533.745 832.555 534.05 831.508 534.659 830.732C535.269 829.951 536.076 829.56 537.081 829.56C538.112 829.56 538.917 829.925 539.495 830.654L539.565 829.716H540.886V837.966C540.886 839.06 540.56 839.922 539.909 840.552C539.263 841.182 538.394 841.498 537.3 841.498C536.69 841.498 536.094 841.367 535.511 841.107C534.927 840.847 534.482 840.49 534.175 840.037L534.925 839.169C535.545 839.935 536.302 840.318 537.198 840.318C537.901 840.318 538.448 840.12 538.839 839.724C539.235 839.328 539.433 838.771 539.433 838.052V837.326C538.854 837.992 538.065 838.326 537.065 838.326C536.076 838.326 535.274 837.927 534.659 837.13C534.05 836.334 533.745 835.248 533.745 833.873ZM535.198 834.037C535.198 834.99 535.394 835.74 535.784 836.287C536.175 836.828 536.722 837.099 537.425 837.099C538.336 837.099 539.006 836.685 539.433 835.857V831.998C538.99 831.19 538.326 830.787 537.44 830.787C536.737 830.787 536.188 831.06 535.792 831.607C535.396 832.154 535.198 832.964 535.198 834.037Z" fill="black"/>
</g>
<circle id="terminal_lonev&#195;&#165;g" cx="512.5" cy="932.595" r="15.1393" fill="#C70000"/>
</g>
<defs>
<clipPath id="clip0">
<rect width="1125" height="2000" fill="white"/>
</clipPath>
</defs>
</svg>
