<svg width="1133" height="2008" viewBox="0 0 1133 2008" fill="none" xmlns="http://www.w3.org/2000/svg">
<g id="Frame 1" clip-path="url(#clip0)" filter="url(#filter0_d)">
<rect width="1125" height="2000" transform="translate(4)" fill="white"/>
<g id="map">
<rect id="Rectangle 5" x="4" width="1125.39" height="2001" fill="#26BFBF"/>
<path id="Vector 1" d="M889.391 20L909.391 0H1129.39V1300H1109.39L1089.39 1280V1260L1069.39 1240H1049.39L1029.39 1260L989.391 1300L909.391 1380V1400L869.391 1440V1480L829.391 1520H789.391L769.391 1500H709.391L689.391 1520L669.391 1540L649.391 1560H629.391L609.391 1540V1500L589.391 1480H569.391H549.391L529.391 1460V1440L509.391 1420L489.391 1400H469.391L449.391 1380L429.391 1360V1340L409.391 1320L389.391 1300V1280L369.391 1260V1240L349.391 1220H329.391L309.391 1200L289.391 1180L269.391 1160V1140L289.391 1120V1100L269.391 1080H249.391L229.391 1060V1040L209.391 1020L189.391 1000H169.391L149.391 980H129.391H109.391L89.3905 960L69.3905 940L49.3905 920L29.3905 900V840L49.3905 820H69.3905L89.3905 800H149.391L169.391 780L189.391 760H209.391L229.391 740H249.391L269.391 720H289.391H309.391L329.391 740V760L349.391 780V800L369.391 820V840L389.391 860L409.391 880L429.391 900L449.391 920H469.391L489.391 900V880L469.391 860L429.391 820L389.391 780V760L369.391 740L329.391 700V680L349.391 660V640L369.391 620H389.391L409.391 640H429.391L449.391 620V600L429.391 580V560V540V520L449.391 500V480L469.391 460H489.391L509.391 480H524.067L549.391 500L569.391 480V460L549.391 440L529.391 420V400L549.391 380H609.391L629.391 400V420L649.391 440H669.391L689.391 420V400V380L709.391 360L729.391 340H749.391L769.391 360H789.391L809.391 340V320L789.391 300V260L829.391 220V180L849.391 160H869.391L889.391 140V120L869.391 100V60L889.391 40V20Z" fill="#03A62C"/>
<path id="Vector 2" d="M104.481 1061L84.385 1041H64.2888L44.1925 1021H24.0963L4 1001V2001H1129.39V1401L1109.29 1381H1089.2L1069.1 1361L1049.01 1341H1028.91L1008.81 1361H988.717L968.62 1381L948.524 1401V1461L928.428 1481V1501V1521L908.332 1541L888.235 1561H787.754H747.562L727.465 1581H687.273L667.177 1601H586.792H566.695L546.599 1581L526.503 1561V1541L506.406 1521L486.31 1501L466.214 1481V1461L446.118 1441V1421L426.021 1401H405.925L385.829 1421V1501V1521V1541L405.925 1561H426.021L446.118 1581V1601L426.021 1621H405.925L385.829 1601V1581L365.733 1561V1481V1461V1441L345.636 1421V1401L325.54 1381V1361L305.444 1341L285.348 1321V1301L265.251 1281L245.155 1261L225.059 1241V1221V1201L204.963 1181L184.866 1161L164.77 1141L144.674 1121V1101L124.578 1081L104.481 1061Z" fill="#03A62C"/>
<path id="Vector 3" d="M824 20L844 0H4V700H104L124 680L144 660V640L124 620V580L84 540V520L104 500H144L164 520V540L184 560H204L224 540V520L204 500H184L164 480V460L184 440H204L224 460H244L264 480H284H304L324 460H344L364 440L384 420L404 400V380L424 360V340L444 320H464L484 300L504 280H524L544 260H564L584 280L604 300H644L684 260H704L744 220V200L724 180V140L744 120V100L724 80V40L744 20H764L784 40V60L764 80V120L744 140V160L764 180H784L804 160V120L824 100V20Z" fill="#03A62C"/>
</g>
<g id="routelines">
<path id="routeline_210" d="M844 360H824H804L784 380L764 400L744 420L724 440L704 460L684 480H664H644H624L604 500L584 520L564 540L544 520L524 500H504H484L464 520V540V560V580L484 600V620V640V660L464 680H444L424 660H404L384 680V700L404 720L424 740V760V780L444 800L464 820L484 840L504 860V880V900V920L524 940L544 960L564 980L584 1000L604 1020V1040L584 1060H564H544H524H504H484L464 1080H444L424 1060L404 1040L384 1020L364 1000H344L324 1020L303.863 1040L284 1060L264 1080L244 1100L224 1120L204 1140L184 1160L164 1180H144L124 1160H104L84 1180L64 1200L44 1220H4" stroke="white" stroke-width="5" stroke-linejoin="round"/>
<path id="routeline_211" d="M284 760H264L244 780V800M244 800H224H204L184 820V840L204 860L224 880L244 900V920M244 800L264 820L284 840L304 860L324 880L344 900L364 920L384 940L404 960L424 980L444 1000L464 1020L484 1040V1060L464 1080H444L424 1060L404 1040L384 1020L364 1000H344L324 1020L304 1040M244 920L224 940H204L184 920L164 900L144 880L124 860L104 840H84L64 860V880L84 900L104 920L124 940H144L164 960L184 980L204 1000L224 1020L244 1040L264 1060H284L304 1040M244 920L264 940L284 960L304 980V1000V1020V1040" stroke="white" stroke-width="5" stroke-linejoin="round"/>
<path id="routeline_202" d="M504 1320L464 1280H444L424 1300V1320L484 1380H504L524 1400" stroke="white" stroke-width="5" stroke-linejoin="round"/>
<path id="routeline_95" d="M904 1620L884 1600L864 1580H844L824 1600H804L784 1580H764L744 1600L724 1620H704H684H664H644H624H604H584H564H544L524 1600L504 1580L484 1560V1540V1520L464 1500H444L424 1520V1540L444 1560L464 1580V1600V1620L444 1640" stroke="white" stroke-width="5" stroke-linejoin="round"/>
<path id="routeline_201" d="M884 840V860V880V900L904 920L924 940L944 960L964 980L984 1000L1004 1020L1024 1040L1044 1060V1080V1100V1120L1064 1140L1084 1160L1104 1180V1200L1084 1220H1064L1044 1200H1024L1004 1220L984 1240L964 1260L944 1280L924 1300L904 1320L884 1340L864 1360L844 1380V1400V1420V1440V1460L824 1480H804H784L764 1460H744H724H704H684L664 1480L644 1500L624 1520V1540V1560V1580V1600V1620H604H584H564H544L524 1600H504L484 1620L464 1640H444" stroke="white" stroke-width="5" stroke-linejoin="round"/>
<path id="routeline_200" d="M604 1020L624 1040L644 1060L664 1080L684 1100L704 1120V1140V1160V1180V1200L684 1220H664L644 1200H624L604 1220V1240L624 1260V1280V1300M604 1020L584 1000L564 980L544 960L524 940L504 920M604 1020V1040L584 1060H564H544H524H504H484L464 1080H444M624 1300L644 1320L664 1340V1360V1380V1400M624 1300L604 1280L584 1260L564 1240L544 1220L524 1200L504 1180L484 1160L464 1140L444 1120V1100V1080M664 1400L644 1420L624 1440V1460V1480V1500V1520M664 1400H644H624H604H584H564H544H524V1420V1440L544 1460H564H584L604 1480V1500L624 1520M624 1520V1540V1560V1580V1600V1620H604H584H564H544L524 1600H504L484 1620L464 1640H444M444 1080L424 1060L404 1040L384 1020L364 1000H344L324 1020L304 1040L284 1060" stroke="white" stroke-width="5" stroke-linecap="round" stroke-linejoin="round"/>
<path id="routeline_204" d="M504 920H524H544H564H584H604M604 920L624 900L644 880L664 860V840V820V800V780V760V740V720V700V680V660V640L644 620L624 600L604 580L584 560L564 540L584 520L604 500L624 480H644H664H684L704 460L724 440L744 420L764 400L784 380L804 360H824H844M604 920H624H644H664H684H704L724 900V880" stroke="white" stroke-width="5" stroke-linejoin="round"/>
</g>
<g id="terminals">
<g id="popup_lonev&#195;&#165;g">
<path id="Vector" d="M502.865 919.731L503.644 920.349L563.218 859.155H581.643C586.752 859.155 590.893 855.014 590.893 849.905V814.905C590.893 809.797 586.752 805.655 581.643 805.655H459.143C454.035 805.655 449.893 809.797 449.893 814.905L449.893 832.405L449.893 849.905C449.893 855.014 454.035 859.155 459.143 859.155H503.286H541.552L502.865 919.731Z" fill="white" stroke="black"/>
<g id="Group 8">
<g id="Group 5">
<rect id="Rectangle 4" x="455.05" y="833.83" width="38.281" height="17.0841" rx="3" fill="#BE0000"/>
</g>
<path id="200" d="M467.915 848.28H460.118V846.734L463.798 842.812C464.303 842.26 464.676 841.778 464.915 841.366C465.16 840.955 465.282 840.564 465.282 840.194C465.282 839.689 465.155 839.293 464.9 839.007C464.644 838.715 464.28 838.569 463.806 838.569C463.295 838.569 462.892 838.747 462.595 839.101C462.303 839.45 462.157 839.911 462.157 840.484H459.892C459.892 839.791 460.056 839.158 460.384 838.585C460.717 838.012 461.186 837.564 461.79 837.241C462.394 836.913 463.079 836.749 463.845 836.749C465.017 836.749 465.926 837.03 466.572 837.593C467.223 838.155 467.548 838.95 467.548 839.976C467.548 840.538 467.402 841.111 467.111 841.694C466.819 842.278 466.319 842.958 465.611 843.734L463.025 846.46H467.915V848.28ZM476.962 843.577C476.962 845.15 476.637 846.353 475.986 847.187C475.335 848.02 474.381 848.437 473.126 848.437C471.887 848.437 470.939 848.028 470.282 847.21C469.626 846.392 469.29 845.221 469.275 843.694V841.601C469.275 840.012 469.603 838.806 470.259 837.984C470.92 837.161 471.871 836.749 473.111 836.749C474.35 836.749 475.298 837.158 475.954 837.976C476.611 838.788 476.947 839.958 476.962 841.484V843.577ZM474.704 841.28C474.704 840.338 474.574 839.653 474.314 839.226C474.058 838.793 473.657 838.577 473.111 838.577C472.579 838.577 472.186 838.783 471.931 839.194C471.681 839.601 471.548 840.239 471.532 841.109V843.874C471.532 844.801 471.657 845.491 471.907 845.944C472.163 846.392 472.569 846.616 473.126 846.616C473.678 846.616 474.077 846.4 474.322 845.968C474.566 845.536 474.694 844.874 474.704 843.984V841.28ZM486.15 843.577C486.15 845.15 485.824 846.353 485.173 847.187C484.522 848.02 483.569 848.437 482.314 848.437C481.074 848.437 480.126 848.028 479.47 847.21C478.814 846.392 478.478 845.221 478.462 843.694V841.601C478.462 840.012 478.79 838.806 479.447 837.984C480.108 837.161 481.058 836.749 482.298 836.749C483.538 836.749 484.486 837.158 485.142 837.976C485.798 838.788 486.134 839.958 486.15 841.484V843.577ZM483.892 841.28C483.892 840.338 483.762 839.653 483.501 839.226C483.246 838.793 482.845 838.577 482.298 838.577C481.767 838.577 481.374 838.783 481.118 839.194C480.868 839.601 480.736 840.239 480.72 841.109V843.874C480.72 844.801 480.845 845.491 481.095 845.944C481.35 846.392 481.756 846.616 482.314 846.616C482.866 846.616 483.264 846.4 483.509 845.968C483.754 845.536 483.881 844.874 483.892 843.984V841.28Z" fill="white"/>
</g>
<g id="Group 9">
<g id="Group 6">
<rect id="Rectangle 4_2" x="500.303" y="833.857" width="40.1808" height="17.9319" rx="3" fill="#BE0000"/>
</g>
<path id="204" d="M514.823 848.28H507.026V846.734L510.706 842.812C511.211 842.26 511.584 841.778 511.823 841.366C512.068 840.955 512.19 840.564 512.19 840.194C512.19 839.689 512.063 839.293 511.807 839.007C511.552 838.715 511.188 838.569 510.714 838.569C510.203 838.569 509.8 838.747 509.503 839.101C509.211 839.45 509.065 839.911 509.065 840.484H506.8C506.8 839.791 506.964 839.158 507.292 838.585C507.625 838.012 508.094 837.564 508.698 837.241C509.302 836.913 509.987 836.749 510.753 836.749C511.925 836.749 512.834 837.03 513.479 837.593C514.13 838.155 514.456 838.95 514.456 839.976C514.456 840.538 514.31 841.111 514.018 841.694C513.727 842.278 513.227 842.958 512.518 843.734L509.932 846.46H514.823V848.28ZM523.87 843.577C523.87 845.15 523.544 846.353 522.893 847.187C522.242 848.02 521.289 848.437 520.034 848.437C518.794 848.437 517.847 848.028 517.19 847.21C516.534 846.392 516.198 845.221 516.182 843.694V841.601C516.182 840.012 516.511 838.806 517.167 837.984C517.828 837.161 518.779 836.749 520.018 836.749C521.258 836.749 522.206 837.158 522.862 837.976C523.518 838.788 523.854 839.958 523.87 841.484V843.577ZM521.612 841.28C521.612 840.338 521.482 839.653 521.222 839.226C520.966 838.793 520.565 838.577 520.018 838.577C519.487 838.577 519.094 838.783 518.839 839.194C518.589 839.601 518.456 840.239 518.44 841.109V843.874C518.44 844.801 518.565 845.491 518.815 845.944C519.071 846.392 519.477 846.616 520.034 846.616C520.586 846.616 520.985 846.4 521.229 845.968C521.474 845.536 521.602 844.874 521.612 843.984V841.28ZM532.081 843.999H533.37V845.819H532.081V848.28H529.823V845.819H525.159L525.057 844.398L529.8 836.905H532.081V843.999ZM527.307 843.999H529.823V839.984L529.675 840.241L527.307 843.999Z" fill="white"/>
</g>
<g id="Group 10">
<g id="Group 7">
<rect id="Rectangle 4_3" x="547.555" y="833.339" width="38.281" height="17.0841" rx="3" fill="#BE0000"/>
</g>
<path id="210" d="M560.898 847.789H553.102V846.242L556.781 842.321C557.287 841.768 557.659 841.287 557.898 840.875C558.143 840.464 558.266 840.073 558.266 839.703C558.266 839.198 558.138 838.802 557.883 838.516C557.628 838.224 557.263 838.078 556.789 838.078C556.279 838.078 555.875 838.255 555.578 838.61C555.287 838.959 555.141 839.419 555.141 839.992H552.875C552.875 839.3 553.039 838.667 553.367 838.094C553.701 837.521 554.169 837.073 554.773 836.75C555.378 836.422 556.063 836.258 556.828 836.258C558 836.258 558.909 836.539 559.555 837.102C560.206 837.664 560.531 838.459 560.531 839.485C560.531 840.047 560.385 840.62 560.094 841.203C559.802 841.787 559.302 842.466 558.594 843.242L556.008 845.969H560.898V847.789ZM567.773 847.789H565.516V839.086L562.82 839.922V838.086L567.531 836.399H567.773V847.789ZM579.133 843.086C579.133 844.659 578.807 845.862 578.156 846.696C577.505 847.529 576.552 847.946 575.297 847.946C574.057 847.946 573.109 847.537 572.453 846.719C571.797 845.901 571.461 844.729 571.445 843.203V841.11C571.445 839.521 571.773 838.315 572.43 837.492C573.091 836.669 574.042 836.258 575.281 836.258C576.521 836.258 577.469 836.667 578.125 837.485C578.781 838.297 579.117 839.466 579.133 840.992V843.086ZM576.875 840.789C576.875 839.847 576.745 839.162 576.484 838.735C576.229 838.302 575.828 838.086 575.281 838.086C574.75 838.086 574.357 838.292 574.102 838.703C573.852 839.11 573.719 839.748 573.703 840.617V843.383C573.703 844.31 573.828 845 574.078 845.453C574.333 845.901 574.74 846.125 575.297 846.125C575.849 846.125 576.247 845.909 576.492 845.477C576.737 845.044 576.865 844.383 576.875 843.492V840.789Z" fill="white"/>
</g>
<path id="Lonev&#195;&#165;g" d="M458.471 825.568H463.862V826.794H456.964V815.419H458.471V825.568ZM464.964 822.489C464.964 821.661 465.125 820.917 465.448 820.255C465.776 819.594 466.229 819.083 466.807 818.724C467.391 818.364 468.055 818.185 468.8 818.185C469.951 818.185 470.88 818.583 471.589 819.38C472.302 820.177 472.659 821.237 472.659 822.56V822.661C472.659 823.484 472.5 824.224 472.182 824.88C471.87 825.531 471.419 826.039 470.831 826.404C470.248 826.768 469.576 826.95 468.815 826.95C467.669 826.95 466.74 826.552 466.026 825.755C465.318 824.958 464.964 823.904 464.964 822.591V822.489ZM466.417 822.661C466.417 823.599 466.633 824.351 467.065 824.919C467.503 825.487 468.086 825.771 468.815 825.771C469.55 825.771 470.133 825.484 470.565 824.911C470.998 824.333 471.214 823.526 471.214 822.489C471.214 821.562 470.992 820.812 470.55 820.239C470.112 819.661 469.529 819.372 468.8 819.372C468.086 819.372 467.511 819.656 467.073 820.224C466.636 820.792 466.417 821.604 466.417 822.661ZM475.839 818.341L475.886 819.404C476.531 818.591 477.375 818.185 478.417 818.185C480.203 818.185 481.104 819.193 481.12 821.208V826.794H479.675V821.2C479.669 820.591 479.529 820.14 479.253 819.849C478.982 819.557 478.557 819.411 477.979 819.411C477.511 819.411 477.099 819.536 476.745 819.786C476.391 820.036 476.115 820.364 475.917 820.771V826.794H474.471V818.341H475.839ZM486.807 826.95C485.662 826.95 484.729 826.575 484.011 825.825C483.292 825.07 482.932 824.062 482.932 822.802V822.536C482.932 821.698 483.091 820.95 483.409 820.294C483.732 819.633 484.18 819.117 484.753 818.747C485.331 818.372 485.956 818.185 486.628 818.185C487.727 818.185 488.581 818.547 489.19 819.271C489.8 819.995 490.104 821.031 490.104 822.38V822.982H484.378C484.399 823.815 484.641 824.489 485.104 825.005C485.573 825.515 486.167 825.771 486.886 825.771C487.396 825.771 487.828 825.667 488.182 825.458C488.537 825.25 488.846 824.974 489.112 824.63L489.995 825.318C489.287 826.406 488.224 826.95 486.807 826.95ZM486.628 819.372C486.044 819.372 485.555 819.586 485.159 820.013C484.763 820.435 484.518 821.029 484.425 821.794H488.659V821.685C488.617 820.95 488.419 820.383 488.065 819.982C487.711 819.575 487.232 819.372 486.628 819.372ZM494.464 824.833L496.557 818.341H498.034L495.003 826.794H493.901L490.839 818.341H492.315L494.464 824.833ZM504.518 826.794C504.435 826.627 504.367 826.331 504.315 825.904C503.643 826.601 502.841 826.95 501.909 826.95C501.076 826.95 500.391 826.716 499.854 826.247C499.323 825.773 499.057 825.174 499.057 824.45C499.057 823.57 499.391 822.888 500.057 822.404C500.729 821.914 501.672 821.669 502.886 821.669H504.292V821.005C504.292 820.5 504.141 820.099 503.839 819.802C503.537 819.5 503.091 819.349 502.503 819.349C501.987 819.349 501.555 819.479 501.206 819.739C500.857 820 500.682 820.315 500.682 820.685H499.229C499.229 820.263 499.378 819.857 499.675 819.466C499.977 819.07 500.383 818.758 500.893 818.529C501.409 818.299 501.974 818.185 502.589 818.185C503.563 818.185 504.326 818.43 504.878 818.919C505.43 819.404 505.716 820.073 505.737 820.927V824.818C505.737 825.594 505.836 826.211 506.034 826.669V826.794H504.518ZM502.12 825.693C502.573 825.693 503.003 825.575 503.409 825.341C503.815 825.107 504.11 824.802 504.292 824.427V822.693H503.159C501.388 822.693 500.503 823.211 500.503 824.247C500.503 824.7 500.654 825.055 500.956 825.31C501.258 825.565 501.646 825.693 502.12 825.693ZM504.425 815.708C504.425 816.161 504.263 816.542 503.94 816.849C503.617 817.151 503.219 817.302 502.745 817.302C502.266 817.302 501.865 817.148 501.542 816.841C501.224 816.534 501.065 816.156 501.065 815.708C501.065 815.26 501.224 814.877 501.542 814.56C501.865 814.242 502.266 814.083 502.745 814.083C503.224 814.083 503.623 814.242 503.94 814.56C504.263 814.877 504.425 815.26 504.425 815.708ZM501.839 815.708C501.839 815.953 501.925 816.164 502.096 816.341C502.274 816.518 502.49 816.607 502.745 816.607C502.995 816.607 503.208 816.521 503.386 816.349C503.563 816.177 503.651 815.963 503.651 815.708C503.651 815.453 503.563 815.237 503.386 815.06C503.214 814.877 503 814.786 502.745 814.786C502.485 814.786 502.268 814.877 502.096 815.06C501.925 815.242 501.839 815.458 501.839 815.708ZM507.659 822.497C507.659 821.18 507.964 820.133 508.573 819.357C509.182 818.575 509.99 818.185 510.995 818.185C512.026 818.185 512.831 818.549 513.409 819.279L513.479 818.341H514.8V826.591C514.8 827.685 514.474 828.547 513.823 829.177C513.177 829.807 512.307 830.122 511.214 830.122C510.604 830.122 510.008 829.992 509.425 829.732C508.841 829.471 508.396 829.114 508.089 828.661L508.839 827.794C509.458 828.56 510.216 828.943 511.112 828.943C511.815 828.943 512.362 828.745 512.753 828.349C513.149 827.953 513.346 827.396 513.346 826.677V825.95C512.768 826.617 511.979 826.95 510.979 826.95C509.99 826.95 509.188 826.552 508.573 825.755C507.964 824.958 507.659 823.872 507.659 822.497ZM509.112 822.661C509.112 823.614 509.307 824.364 509.698 824.911C510.089 825.453 510.636 825.724 511.339 825.724C512.25 825.724 512.919 825.31 513.346 824.482V820.622C512.904 819.815 512.24 819.411 511.354 819.411C510.651 819.411 510.102 819.685 509.706 820.232C509.31 820.779 509.112 821.588 509.112 822.661Z" fill="black"/>
</g>
<circle id="terminal_lonev&#195;&#165;g" cx="503.5" cy="920.5" r="16.5" fill="#C70000"/>
<g id="popup_arna">
<path id="Vector_2" d="M406.533 1633.33V1621.25C406.533 1615.79 402.111 1611.37 396.656 1611.37H265.377C259.922 1611.37 255.5 1615.79 255.5 1621.25L255.5 1640L255.5 1658.75C255.5 1664.21 259.922 1668.63 265.377 1668.63H396.656C402.111 1668.63 406.533 1664.21 406.533 1658.75V1646.67L443.624 1640.49V1639.51L406.533 1633.33Z" fill="white" stroke="black"/>
<g id="Group 8_2">
<g id="Group 5_2">
<rect id="Rectangle 4_4" x="265.377" y="1641.48" width="37.5083" height="16.7392" rx="3" fill="#BE0000"/>
</g>
<path id="95" d="M280.59 1651.39C280.002 1651.97 279.314 1652.26 278.528 1652.26C277.523 1652.26 276.718 1651.91 276.114 1651.23C275.509 1650.53 275.207 1649.6 275.207 1648.43C275.207 1647.69 275.369 1647 275.692 1646.38C276.02 1645.76 276.476 1645.27 277.059 1644.93C277.642 1644.58 278.299 1644.41 279.028 1644.41C279.778 1644.41 280.444 1644.59 281.028 1644.97C281.611 1645.34 282.064 1645.88 282.387 1646.59C282.71 1647.29 282.874 1648.09 282.879 1649V1649.84C282.879 1651.73 282.408 1653.22 281.465 1654.3C280.523 1655.39 279.187 1655.97 277.457 1656.04L276.903 1656.05V1654.16L277.403 1654.16C279.366 1654.07 280.429 1653.15 280.59 1651.39ZM279.082 1650.53C279.447 1650.53 279.759 1650.44 280.02 1650.25C280.286 1650.06 280.486 1649.84 280.621 1649.57V1648.64C280.621 1647.88 280.476 1647.28 280.184 1646.86C279.892 1646.44 279.502 1646.23 279.012 1646.23C278.559 1646.23 278.187 1646.44 277.895 1646.85C277.603 1647.26 277.457 1647.78 277.457 1648.41C277.457 1649.03 277.598 1649.54 277.879 1649.94C278.166 1650.33 278.567 1650.53 279.082 1650.53ZM284.832 1650.34L285.489 1644.56H291.864V1646.45H287.34L287.059 1648.89C287.595 1648.6 288.166 1648.46 288.77 1648.46C289.853 1648.46 290.702 1648.8 291.317 1649.47C291.931 1650.14 292.239 1651.08 292.239 1652.29C292.239 1653.02 292.082 1653.68 291.77 1654.27C291.463 1654.84 291.02 1655.29 290.442 1655.62C289.864 1655.94 289.181 1656.09 288.395 1656.09C287.707 1656.09 287.069 1655.96 286.481 1655.68C285.892 1655.4 285.426 1655.01 285.082 1654.5C284.744 1653.99 284.564 1653.42 284.543 1652.77H286.778C286.825 1653.25 286.989 1653.62 287.27 1653.88C287.556 1654.14 287.929 1654.27 288.387 1654.27C288.898 1654.27 289.291 1654.09 289.567 1653.73C289.843 1653.36 289.981 1652.84 289.981 1652.16C289.981 1651.52 289.822 1651.02 289.504 1650.68C289.187 1650.34 288.736 1650.16 288.153 1650.16C287.616 1650.16 287.181 1650.3 286.848 1650.59L286.629 1650.79L284.832 1650.34Z" fill="white"/>
</g>
<g id="Group 9_2">
<g id="Group 6_2">
<rect id="Rectangle 4_5" x="312.262" y="1641.48" width="37.5083" height="16.7392" rx="3" fill="#BE0000"/>
</g>
<path id="200_2" d="M325.678 1655.94H317.881V1654.39L321.561 1650.47C322.066 1649.92 322.438 1649.44 322.678 1649.02C322.923 1648.61 323.045 1648.22 323.045 1647.85C323.045 1647.35 322.917 1646.95 322.662 1646.66C322.407 1646.37 322.042 1646.23 321.568 1646.23C321.058 1646.23 320.654 1646.4 320.357 1646.76C320.066 1647.11 319.92 1647.57 319.92 1648.14H317.654C317.654 1647.45 317.818 1646.82 318.147 1646.24C318.48 1645.67 318.949 1645.22 319.553 1644.9C320.157 1644.57 320.842 1644.41 321.607 1644.41C322.779 1644.41 323.688 1644.69 324.334 1645.25C324.985 1645.81 325.311 1646.61 325.311 1647.63C325.311 1648.2 325.165 1648.77 324.873 1649.35C324.581 1649.94 324.081 1650.61 323.373 1651.39L320.787 1654.12H325.678V1655.94ZM334.725 1651.23C334.725 1652.81 334.399 1654.01 333.748 1654.84C333.097 1655.68 332.144 1656.09 330.889 1656.09C329.649 1656.09 328.701 1655.69 328.045 1654.87C327.389 1654.05 327.053 1652.88 327.037 1651.35V1649.26C327.037 1647.67 327.365 1646.46 328.022 1645.64C328.683 1644.82 329.634 1644.41 330.873 1644.41C332.113 1644.41 333.061 1644.82 333.717 1645.63C334.373 1646.45 334.709 1647.61 334.725 1649.14V1651.23ZM332.467 1648.94C332.467 1647.99 332.337 1647.31 332.076 1646.88C331.821 1646.45 331.42 1646.23 330.873 1646.23C330.342 1646.23 329.949 1646.44 329.693 1646.85C329.443 1647.26 329.311 1647.9 329.295 1648.77V1651.53C329.295 1652.46 329.42 1653.15 329.67 1653.6C329.925 1654.05 330.331 1654.27 330.889 1654.27C331.441 1654.27 331.839 1654.06 332.084 1653.63C332.329 1653.19 332.456 1652.53 332.467 1651.64V1648.94ZM343.912 1651.23C343.912 1652.81 343.587 1654.01 342.936 1654.84C342.285 1655.68 341.331 1656.09 340.076 1656.09C338.837 1656.09 337.889 1655.69 337.232 1654.87C336.576 1654.05 336.24 1652.88 336.225 1651.35V1649.26C336.225 1647.67 336.553 1646.46 337.209 1645.64C337.87 1644.82 338.821 1644.41 340.061 1644.41C341.3 1644.41 342.248 1644.82 342.904 1645.63C343.561 1646.45 343.897 1647.61 343.912 1649.14V1651.23ZM341.654 1648.94C341.654 1647.99 341.524 1647.31 341.264 1646.88C341.009 1646.45 340.607 1646.23 340.061 1646.23C339.529 1646.23 339.136 1646.44 338.881 1646.85C338.631 1647.26 338.498 1647.9 338.482 1648.77V1651.53C338.482 1652.46 338.607 1653.15 338.857 1653.6C339.113 1654.05 339.519 1654.27 340.076 1654.27C340.628 1654.27 341.027 1654.06 341.272 1653.63C341.516 1653.19 341.644 1652.53 341.654 1651.64V1648.94Z" fill="white"/>
</g>
<g id="Group 10_2">
<g id="Group 7_2">
<rect id="Rectangle 4_6" x="359.148" y="1641.48" width="37.5083" height="16.7392" rx="3" fill="#BE0000"/>
</g>
<path id="201" d="M372.563 1655.94H364.766V1654.39L368.446 1650.47C368.951 1649.92 369.324 1649.44 369.563 1649.02C369.808 1648.61 369.93 1648.22 369.93 1647.85C369.93 1647.35 369.803 1646.95 369.548 1646.66C369.292 1646.37 368.928 1646.23 368.454 1646.23C367.943 1646.23 367.54 1646.4 367.243 1646.76C366.951 1647.11 366.805 1647.57 366.805 1648.14H364.54C364.54 1647.45 364.704 1646.82 365.032 1646.24C365.365 1645.67 365.834 1645.22 366.438 1644.9C367.042 1644.57 367.727 1644.41 368.493 1644.41C369.665 1644.41 370.574 1644.69 371.219 1645.25C371.87 1645.81 372.196 1646.61 372.196 1647.63C372.196 1648.2 372.05 1648.77 371.758 1649.35C371.467 1649.94 370.967 1650.61 370.258 1651.39L367.673 1654.12H372.563V1655.94ZM381.61 1651.23C381.61 1652.81 381.285 1654.01 380.633 1654.84C379.982 1655.68 379.029 1656.09 377.774 1656.09C376.535 1656.09 375.587 1655.69 374.93 1654.87C374.274 1654.05 373.938 1652.88 373.923 1651.35V1649.26C373.923 1647.67 374.251 1646.46 374.907 1645.64C375.568 1644.82 376.519 1644.41 377.758 1644.41C378.998 1644.41 379.946 1644.82 380.602 1645.63C381.258 1646.45 381.594 1647.61 381.61 1649.14V1651.23ZM379.352 1648.94C379.352 1647.99 379.222 1647.31 378.962 1646.88C378.706 1646.45 378.305 1646.23 377.758 1646.23C377.227 1646.23 376.834 1646.44 376.579 1646.85C376.329 1647.26 376.196 1647.9 376.18 1648.77V1651.53C376.18 1652.46 376.305 1653.15 376.555 1653.6C376.811 1654.05 377.217 1654.27 377.774 1654.27C378.326 1654.27 378.725 1654.06 378.969 1653.63C379.214 1653.19 379.342 1652.53 379.352 1651.64V1648.94ZM388.626 1655.94H386.368V1647.23L383.673 1648.07V1646.23L388.383 1644.55H388.626V1655.94Z" fill="white"/>
</g>
<path id="Arna terminal" d="M270.973 1628.64H266.207L265.137 1631.6H263.59L267.933 1620.23H269.246L273.598 1631.6H272.058L270.973 1628.64ZM266.66 1627.4H270.527L268.59 1622.08L266.66 1627.4ZM278.988 1624.45C278.769 1624.41 278.532 1624.39 278.277 1624.39C277.329 1624.39 276.686 1624.8 276.348 1625.6V1631.6H274.902V1623.15H276.308L276.332 1624.13C276.806 1623.37 277.478 1623 278.348 1623C278.629 1623 278.842 1623.03 278.988 1623.1V1624.45ZM281.691 1623.15L281.738 1624.21C282.384 1623.4 283.228 1623 284.269 1623C286.056 1623 286.957 1624 286.973 1626.02V1631.6H285.527V1626.01C285.522 1625.4 285.381 1624.95 285.105 1624.66C284.834 1624.37 284.41 1624.22 283.832 1624.22C283.363 1624.22 282.952 1624.35 282.598 1624.6C282.243 1624.85 281.967 1625.18 281.769 1625.58V1631.6H280.324V1623.15H281.691ZM294.371 1631.6C294.288 1631.44 294.22 1631.14 294.168 1630.71C293.496 1631.41 292.694 1631.76 291.762 1631.76C290.928 1631.76 290.243 1631.53 289.707 1631.06C289.176 1630.58 288.91 1629.99 288.91 1629.26C288.91 1628.38 289.243 1627.7 289.91 1627.21C290.582 1626.72 291.525 1626.48 292.738 1626.48H294.144V1625.82C294.144 1625.31 293.993 1624.91 293.691 1624.61C293.389 1624.31 292.944 1624.16 292.355 1624.16C291.84 1624.16 291.407 1624.29 291.058 1624.55C290.709 1624.81 290.535 1625.13 290.535 1625.5H289.082C289.082 1625.07 289.23 1624.67 289.527 1624.28C289.829 1623.88 290.236 1623.57 290.746 1623.34C291.262 1623.11 291.827 1623 292.441 1623C293.415 1623 294.178 1623.24 294.73 1623.73C295.282 1624.21 295.569 1624.88 295.59 1625.74V1629.63C295.59 1630.4 295.689 1631.02 295.887 1631.48V1631.6H294.371ZM291.973 1630.5C292.426 1630.5 292.855 1630.39 293.262 1630.15C293.668 1629.92 293.962 1629.61 294.144 1629.24V1627.5H293.012C291.241 1627.5 290.355 1628.02 290.355 1629.06C290.355 1629.51 290.506 1629.87 290.808 1630.12C291.111 1630.38 291.499 1630.5 291.973 1630.5ZM303.785 1621.1V1623.15H305.363V1624.27H303.785V1629.51C303.785 1629.85 303.855 1630.1 303.996 1630.28C304.137 1630.44 304.376 1630.53 304.715 1630.53C304.881 1630.53 305.111 1630.5 305.402 1630.43V1631.6C305.022 1631.71 304.652 1631.76 304.293 1631.76C303.647 1631.76 303.16 1631.57 302.832 1631.18C302.504 1630.78 302.34 1630.23 302.34 1629.51V1624.27H300.801V1623.15H302.34V1621.1H303.785ZM310.566 1631.76C309.42 1631.76 308.488 1631.39 307.769 1630.64C307.051 1629.88 306.691 1628.87 306.691 1627.61V1627.35C306.691 1626.51 306.85 1625.76 307.168 1625.1C307.491 1624.44 307.939 1623.93 308.512 1623.56C309.09 1623.18 309.715 1623 310.387 1623C311.486 1623 312.34 1623.36 312.949 1624.08C313.558 1624.81 313.863 1625.84 313.863 1627.19V1627.79H308.137C308.157 1628.63 308.4 1629.3 308.863 1629.82C309.332 1630.33 309.926 1630.58 310.644 1630.58C311.155 1630.58 311.587 1630.48 311.941 1630.27C312.295 1630.06 312.605 1629.78 312.871 1629.44L313.754 1630.13C313.045 1631.22 311.983 1631.76 310.566 1631.76ZM310.387 1624.18C309.803 1624.18 309.314 1624.4 308.918 1624.82C308.522 1625.25 308.277 1625.84 308.183 1626.6H312.418V1626.5C312.376 1625.76 312.178 1625.19 311.824 1624.79C311.47 1624.39 310.991 1624.18 310.387 1624.18ZM319.629 1624.45C319.41 1624.41 319.173 1624.39 318.918 1624.39C317.97 1624.39 317.327 1624.8 316.988 1625.6V1631.6H315.543V1623.15H316.949L316.973 1624.13C317.446 1623.37 318.118 1623 318.988 1623C319.269 1623 319.483 1623.03 319.629 1623.1V1624.45ZM322.324 1623.15L322.363 1624.09C322.983 1623.36 323.819 1623 324.871 1623C326.053 1623 326.858 1623.45 327.285 1624.35C327.566 1623.95 327.931 1623.62 328.379 1623.37C328.832 1623.12 329.366 1623 329.98 1623C331.834 1623 332.777 1623.98 332.808 1625.94V1631.6H331.363V1626.03C331.363 1625.42 331.225 1624.97 330.949 1624.68C330.673 1624.37 330.209 1624.22 329.558 1624.22C329.022 1624.22 328.577 1624.38 328.223 1624.71C327.868 1625.02 327.663 1625.45 327.605 1626V1631.6H326.152V1626.07C326.152 1624.84 325.551 1624.22 324.348 1624.22C323.4 1624.22 322.751 1624.63 322.402 1625.43V1631.6H320.957V1623.15H322.324ZM336.566 1631.6H335.121V1623.15H336.566V1631.6ZM335.004 1620.91C335.004 1620.68 335.074 1620.48 335.215 1620.32C335.361 1620.15 335.574 1620.07 335.855 1620.07C336.137 1620.07 336.35 1620.15 336.496 1620.32C336.642 1620.48 336.715 1620.68 336.715 1620.91C336.715 1621.14 336.642 1621.34 336.496 1621.5C336.35 1621.65 336.137 1621.73 335.855 1621.73C335.574 1621.73 335.361 1621.65 335.215 1621.5C335.074 1621.34 335.004 1621.14 335.004 1620.91ZM340.254 1623.15L340.301 1624.21C340.946 1623.4 341.79 1623 342.832 1623C344.618 1623 345.519 1624 345.535 1626.02V1631.6H344.09V1626.01C344.084 1625.4 343.944 1624.95 343.668 1624.66C343.397 1624.37 342.973 1624.22 342.394 1624.22C341.926 1624.22 341.514 1624.35 341.16 1624.6C340.806 1624.85 340.53 1625.18 340.332 1625.58V1631.6H338.887V1623.15H340.254ZM352.933 1631.6C352.85 1631.44 352.782 1631.14 352.73 1630.71C352.058 1631.41 351.256 1631.76 350.324 1631.76C349.491 1631.76 348.806 1631.53 348.269 1631.06C347.738 1630.58 347.473 1629.99 347.473 1629.26C347.473 1628.38 347.806 1627.7 348.473 1627.21C349.144 1626.72 350.087 1626.48 351.301 1626.48H352.707V1625.82C352.707 1625.31 352.556 1624.91 352.254 1624.61C351.952 1624.31 351.506 1624.16 350.918 1624.16C350.402 1624.16 349.97 1624.29 349.621 1624.55C349.272 1624.81 349.098 1625.13 349.098 1625.5H347.644C347.644 1625.07 347.793 1624.67 348.09 1624.28C348.392 1623.88 348.798 1623.57 349.308 1623.34C349.824 1623.11 350.389 1623 351.004 1623C351.978 1623 352.741 1623.24 353.293 1623.73C353.845 1624.21 354.131 1624.88 354.152 1625.74V1629.63C354.152 1630.4 354.251 1631.02 354.449 1631.48V1631.6H352.933ZM350.535 1630.5C350.988 1630.5 351.418 1630.39 351.824 1630.15C352.23 1629.92 352.525 1629.61 352.707 1629.24V1627.5H351.574C349.803 1627.5 348.918 1628.02 348.918 1629.06C348.918 1629.51 349.069 1629.87 349.371 1630.12C349.673 1630.38 350.061 1630.5 350.535 1630.5ZM357.988 1631.6H356.543V1619.6H357.988V1631.6Z" fill="black"/>
</g>
<circle id="terminal_arna" cx="444.139" cy="1640.14" r="15.1393" fill="#C70000"/>
</g>
<g id="routestops">
<g id="routestop_210">
<rect id="Rectangle 1" x="845" y="346" width="60" height="30" rx="10" fill="#BE0000" stroke="white" stroke-width="3" stroke-linejoin="round"/>
<path id="210_2" d="M867.784 369H857.063V366.873L862.123 361.48C862.818 360.721 863.33 360.059 863.659 359.493C863.996 358.927 864.164 358.39 864.164 357.882C864.164 357.187 863.989 356.643 863.638 356.249C863.287 355.848 862.785 355.647 862.134 355.647C861.432 355.647 860.877 355.891 860.469 356.378C860.068 356.858 859.867 357.492 859.867 358.279H856.752C856.752 357.327 856.978 356.457 857.429 355.669C857.887 354.881 858.532 354.265 859.362 353.821C860.193 353.37 861.135 353.145 862.188 353.145C863.799 353.145 865.049 353.531 865.937 354.305C866.832 355.078 867.279 356.17 867.279 357.581C867.279 358.354 867.079 359.142 866.678 359.944C866.277 360.746 865.589 361.681 864.615 362.748L861.06 366.497H867.784V369ZM877.237 369H874.133V357.033L870.427 358.183V355.658L876.904 353.338H877.237V369ZM892.856 362.533C892.856 364.696 892.409 366.35 891.514 367.496C890.618 368.642 889.308 369.215 887.582 369.215C885.878 369.215 884.574 368.653 883.672 367.528C882.77 366.404 882.308 364.793 882.286 362.694V359.815C882.286 357.631 882.737 355.973 883.64 354.842C884.549 353.71 885.856 353.145 887.561 353.145C889.265 353.145 890.568 353.707 891.471 354.831C892.373 355.948 892.835 357.556 892.856 359.654V362.533ZM889.752 359.375C889.752 358.079 889.573 357.137 889.215 356.55C888.864 355.955 888.312 355.658 887.561 355.658C886.83 355.658 886.289 355.941 885.938 356.507C885.595 357.065 885.412 357.943 885.391 359.139V362.941C885.391 364.216 885.562 365.165 885.906 365.788C886.257 366.404 886.816 366.712 887.582 366.712C888.341 366.712 888.889 366.415 889.226 365.82C889.562 365.226 889.738 364.316 889.752 363.092V359.375Z" fill="white"/>
</g>
<g id="routestop_201">
<rect id="Rectangle 1_2" x="854" y="810" width="60" height="30" rx="10" fill="#BE0000" stroke="white" stroke-width="3" stroke-linejoin="round"/>
<path id="201_2" d="M876.784 833H866.063V830.873L871.123 825.48C871.818 824.721 872.33 824.059 872.659 823.493C872.996 822.927 873.164 822.39 873.164 821.882C873.164 821.187 872.989 820.643 872.638 820.249C872.287 819.848 871.785 819.647 871.134 819.647C870.432 819.647 869.877 819.891 869.469 820.378C869.068 820.858 868.867 821.492 868.867 822.279H865.752C865.752 821.327 865.978 820.457 866.429 819.669C866.887 818.881 867.532 818.265 868.362 817.821C869.193 817.37 870.135 817.145 871.188 817.145C872.799 817.145 874.049 817.531 874.937 818.305C875.832 819.078 876.279 820.17 876.279 821.581C876.279 822.354 876.079 823.142 875.678 823.944C875.277 824.746 874.589 825.681 873.615 826.748L870.06 830.497H876.784V833ZM889.224 826.533C889.224 828.696 888.776 830.35 887.881 831.496C886.986 832.642 885.675 833.215 883.949 833.215C882.245 833.215 880.941 832.653 880.039 831.528C879.137 830.404 878.675 828.793 878.653 826.694V823.815C878.653 821.631 879.104 819.973 880.007 818.842C880.916 817.71 882.223 817.145 883.928 817.145C885.632 817.145 886.936 817.707 887.838 818.831C888.74 819.948 889.202 821.556 889.224 823.654V826.533ZM886.119 823.375C886.119 822.079 885.94 821.137 885.582 820.55C885.231 819.955 884.68 819.658 883.928 819.658C883.197 819.658 882.657 819.941 882.306 820.507C881.962 821.065 881.779 821.943 881.758 823.139V826.941C881.758 828.216 881.93 829.165 882.273 829.788C882.624 830.404 883.183 830.712 883.949 830.712C884.708 830.712 885.256 830.415 885.593 829.82C885.929 829.226 886.105 828.316 886.119 827.092V823.375ZM898.87 833H895.766V821.033L892.06 822.183V819.658L898.537 817.338H898.87V833Z" fill="white"/>
</g>
<g id="routestop_95">
<rect id="Rectangle 1_3" x="902" y="1618" width="60" height="30" rx="10" fill="#BE0000" stroke="white" stroke-width="3" stroke-linejoin="round"/>
<path id="95_2" d="M927.692 1633.98C926.883 1634.78 925.938 1635.18 924.856 1635.18C923.474 1635.18 922.368 1634.7 921.537 1633.76C920.706 1632.81 920.291 1631.52 920.291 1629.91C920.291 1628.89 920.513 1627.95 920.957 1627.1C921.408 1626.24 922.035 1625.57 922.837 1625.1C923.639 1624.62 924.541 1624.38 925.544 1624.38C926.575 1624.38 927.492 1624.64 928.294 1625.15C929.096 1625.67 929.719 1626.41 930.163 1627.38C930.607 1628.34 930.833 1629.45 930.84 1630.7V1631.85C930.84 1634.45 930.192 1636.5 928.896 1637.99C927.599 1639.48 925.762 1640.28 923.385 1640.38L922.622 1640.39V1637.8L923.31 1637.79C926.009 1637.67 927.47 1636.4 927.692 1633.98ZM925.619 1632.8C926.12 1632.8 926.55 1632.67 926.908 1632.42C927.273 1632.16 927.549 1631.85 927.735 1631.48V1630.2C927.735 1629.15 927.535 1628.33 927.134 1627.75C926.733 1627.17 926.196 1626.88 925.522 1626.88C924.899 1626.88 924.387 1627.17 923.986 1627.74C923.585 1628.31 923.385 1629.02 923.385 1629.88C923.385 1630.73 923.578 1631.43 923.965 1631.99C924.359 1632.53 924.91 1632.8 925.619 1632.8ZM933.525 1632.54L934.428 1624.6H943.193V1627.18H936.974L936.587 1630.55C937.325 1630.15 938.109 1629.96 938.939 1629.96C940.429 1629.96 941.596 1630.42 942.441 1631.34C943.286 1632.27 943.709 1633.56 943.709 1635.22C943.709 1636.23 943.494 1637.14 943.064 1637.94C942.642 1638.73 942.033 1639.35 941.238 1639.8C940.443 1640.23 939.505 1640.45 938.424 1640.45C937.479 1640.45 936.601 1640.26 935.792 1639.88C934.983 1639.49 934.342 1638.95 933.869 1638.26C933.404 1637.56 933.157 1636.77 933.128 1635.89H936.2C936.265 1636.54 936.49 1637.05 936.877 1637.41C937.271 1637.77 937.783 1637.95 938.413 1637.95C939.115 1637.95 939.656 1637.7 940.035 1637.2C940.415 1636.69 940.604 1635.97 940.604 1635.05C940.604 1634.16 940.386 1633.48 939.949 1633.01C939.512 1632.53 938.893 1632.3 938.091 1632.3C937.353 1632.3 936.755 1632.49 936.297 1632.88L935.996 1633.16L933.525 1632.54Z" fill="white"/>
</g>
<g id="routestop_202">
<g id="Rectangle 1_4">
<rect x="502" y="1318" width="60" height="30" rx="10" fill="#BE0000"/>
<rect x="502" y="1318" width="60" height="30" rx="10" stroke="white" stroke-width="3" stroke-linejoin="round"/>
<rect x="502" y="1318" width="60" height="30" rx="10" stroke="url(#paint0_linear)" stroke-width="3" stroke-linejoin="round"/>
</g>
<path id="202" d="M524.784 1341H514.063V1338.87L519.123 1333.48C519.818 1332.72 520.33 1332.06 520.659 1331.49C520.996 1330.93 521.164 1330.39 521.164 1329.88C521.164 1329.19 520.989 1328.64 520.638 1328.25C520.287 1327.85 519.785 1327.65 519.134 1327.65C518.432 1327.65 517.877 1327.89 517.469 1328.38C517.068 1328.86 516.867 1329.49 516.867 1330.28H513.752C513.752 1329.33 513.978 1328.46 514.429 1327.67C514.887 1326.88 515.532 1326.27 516.362 1325.82C517.193 1325.37 518.135 1325.14 519.188 1325.14C520.799 1325.14 522.049 1325.53 522.937 1326.3C523.832 1327.08 524.279 1328.17 524.279 1329.58C524.279 1330.35 524.079 1331.14 523.678 1331.94C523.277 1332.75 522.589 1333.68 521.615 1334.75L518.06 1338.5H524.784V1341ZM537.224 1334.53C537.224 1336.7 536.776 1338.35 535.881 1339.5C534.986 1340.64 533.675 1341.21 531.949 1341.21C530.245 1341.21 528.941 1340.65 528.039 1339.53C527.137 1338.4 526.675 1336.79 526.653 1334.69V1331.82C526.653 1329.63 527.104 1327.97 528.007 1326.84C528.916 1325.71 530.223 1325.14 531.928 1325.14C533.632 1325.14 534.936 1325.71 535.838 1326.83C536.74 1327.95 537.202 1329.56 537.224 1331.65V1334.53ZM534.119 1331.38C534.119 1330.08 533.94 1329.14 533.582 1328.55C533.231 1327.96 532.68 1327.66 531.928 1327.66C531.197 1327.66 530.657 1327.94 530.306 1328.51C529.962 1329.07 529.779 1329.94 529.758 1331.14V1334.94C529.758 1336.22 529.93 1337.17 530.273 1337.79C530.624 1338.4 531.183 1338.71 531.949 1338.71C532.708 1338.71 533.256 1338.41 533.593 1337.82C533.929 1337.23 534.105 1336.32 534.119 1335.09V1331.38ZM550.05 1341H539.329V1338.87L544.389 1333.48C545.083 1332.72 545.595 1332.06 545.925 1331.49C546.261 1330.93 546.43 1330.39 546.43 1329.88C546.43 1329.19 546.254 1328.64 545.903 1328.25C545.552 1327.85 545.051 1327.65 544.399 1327.65C543.698 1327.65 543.143 1327.89 542.734 1328.38C542.333 1328.86 542.133 1329.49 542.133 1330.28H539.018C539.018 1329.33 539.243 1328.46 539.694 1327.67C540.153 1326.88 540.797 1326.27 541.628 1325.82C542.459 1325.37 543.4 1325.14 544.453 1325.14C546.064 1325.14 547.314 1325.53 548.202 1326.3C549.097 1327.08 549.545 1328.17 549.545 1329.58C549.545 1330.35 549.344 1331.14 548.943 1331.94C548.542 1332.75 547.855 1333.68 546.881 1334.75L543.325 1338.5H550.05V1341Z" fill="white"/>
</g>
<g id="routestop_200">
<rect id="Rectangle 1_5" x="264" y="1035" width="60" height="30" rx="10" fill="#BE0000" stroke="white" stroke-width="3" stroke-linejoin="round"/>
<path id="200_3" d="M286.784 1058H276.063V1055.87L281.123 1050.48C281.818 1049.72 282.33 1049.06 282.659 1048.49C282.996 1047.93 283.164 1047.39 283.164 1046.88C283.164 1046.19 282.989 1045.64 282.638 1045.25C282.287 1044.85 281.785 1044.65 281.134 1044.65C280.432 1044.65 279.877 1044.89 279.469 1045.38C279.068 1045.86 278.867 1046.49 278.867 1047.28H275.752C275.752 1046.33 275.978 1045.46 276.429 1044.67C276.887 1043.88 277.532 1043.27 278.362 1042.82C279.193 1042.37 280.135 1042.14 281.188 1042.14C282.799 1042.14 284.049 1042.53 284.937 1043.3C285.832 1044.08 286.279 1045.17 286.279 1046.58C286.279 1047.35 286.079 1048.14 285.678 1048.94C285.277 1049.75 284.589 1050.68 283.615 1051.75L280.06 1055.5H286.784V1058ZM299.224 1051.53C299.224 1053.7 298.776 1055.35 297.881 1056.5C296.986 1057.64 295.675 1058.21 293.949 1058.21C292.245 1058.21 290.941 1057.65 290.039 1056.53C289.137 1055.4 288.675 1053.79 288.653 1051.69V1048.82C288.653 1046.63 289.104 1044.97 290.007 1043.84C290.916 1042.71 292.223 1042.14 293.928 1042.14C295.632 1042.14 296.936 1042.71 297.838 1043.83C298.74 1044.95 299.202 1046.56 299.224 1048.65V1051.53ZM296.119 1048.38C296.119 1047.08 295.94 1046.14 295.582 1045.55C295.231 1044.96 294.68 1044.66 293.928 1044.66C293.197 1044.66 292.657 1044.94 292.306 1045.51C291.962 1046.07 291.779 1046.94 291.758 1048.14V1051.94C291.758 1053.22 291.93 1054.17 292.273 1054.79C292.624 1055.4 293.183 1055.71 293.949 1055.71C294.708 1055.71 295.256 1055.41 295.593 1054.82C295.929 1054.23 296.105 1053.32 296.119 1052.09V1048.38ZM311.856 1051.53C311.856 1053.7 311.409 1055.35 310.514 1056.5C309.618 1057.64 308.308 1058.21 306.582 1058.21C304.878 1058.21 303.574 1057.65 302.672 1056.53C301.77 1055.4 301.308 1053.79 301.286 1051.69V1048.82C301.286 1046.63 301.737 1044.97 302.64 1043.84C303.549 1042.71 304.856 1042.14 306.561 1042.14C308.265 1042.14 309.568 1042.71 310.471 1043.83C311.373 1044.95 311.835 1046.56 311.856 1048.65V1051.53ZM308.752 1048.38C308.752 1047.08 308.573 1046.14 308.215 1045.55C307.864 1044.96 307.312 1044.66 306.561 1044.66C305.83 1044.66 305.289 1044.94 304.938 1045.51C304.595 1046.07 304.412 1046.94 304.391 1048.14V1051.94C304.391 1053.22 304.562 1054.17 304.906 1054.79C305.257 1055.4 305.816 1055.71 306.582 1055.71C307.341 1055.71 307.889 1055.41 308.226 1054.82C308.562 1054.23 308.738 1053.32 308.752 1052.09V1048.38Z" fill="white"/>
</g>
<g id="routestop_211">
<rect id="Rectangle 1_6" x="284" y="746" width="60" height="30" rx="10" fill="#BE0000" stroke="white" stroke-width="3" stroke-linejoin="round"/>
<path id="211" d="M306.784 769H296.063V766.873L301.123 761.48C301.818 760.721 302.33 760.059 302.659 759.493C302.996 758.927 303.164 758.39 303.164 757.882C303.164 757.187 302.989 756.643 302.638 756.249C302.287 755.848 301.785 755.647 301.134 755.647C300.432 755.647 299.877 755.891 299.469 756.378C299.068 756.858 298.867 757.492 298.867 758.279H295.752C295.752 757.327 295.978 756.457 296.429 755.669C296.887 754.881 297.532 754.265 298.362 753.821C299.193 753.37 300.135 753.145 301.188 753.145C302.799 753.145 304.049 753.531 304.937 754.305C305.832 755.078 306.279 756.17 306.279 757.581C306.279 758.354 306.079 759.142 305.678 759.944C305.277 760.746 304.589 761.681 303.615 762.748L300.06 766.497H306.784V769ZM316.237 769H313.133V757.033L309.427 758.183V755.658L315.904 753.338H316.237V769ZM328.87 769H325.766V757.033L322.06 758.183V755.658L328.537 753.338H328.87V769Z" fill="white"/>
</g>
<g id="routestop_204">
<rect id="Rectangle 1_7" x="695.697" y="851" width="60" height="30" rx="10" fill="#BE0000" stroke="white" stroke-width="3" stroke-linejoin="round"/>
<path id="204_2" d="M718.481 874H707.76V871.873L712.82 866.48C713.514 865.721 714.026 865.059 714.356 864.493C714.692 863.927 714.861 863.39 714.861 862.882C714.861 862.187 714.685 861.643 714.334 861.249C713.983 860.848 713.482 860.647 712.83 860.647C712.129 860.647 711.574 860.891 711.165 861.378C710.764 861.858 710.564 862.492 710.564 863.279H707.449C707.449 862.327 707.674 861.457 708.125 860.669C708.584 859.881 709.228 859.265 710.059 858.821C710.89 858.37 711.831 858.145 712.884 858.145C714.495 858.145 715.745 858.531 716.633 859.305C717.528 860.078 717.976 861.17 717.976 862.581C717.976 863.354 717.775 864.142 717.374 864.944C716.973 865.746 716.286 866.681 715.312 867.748L711.756 871.497H718.481V874ZM730.92 867.533C730.92 869.696 730.473 871.35 729.578 872.496C728.682 873.642 727.372 874.215 725.646 874.215C723.941 874.215 722.638 873.653 721.736 872.528C720.833 871.404 720.371 869.793 720.35 867.694V864.815C720.35 862.631 720.801 860.973 721.703 859.842C722.613 858.71 723.92 858.145 725.624 858.145C727.329 858.145 728.632 858.707 729.535 859.831C730.437 860.948 730.899 862.556 730.92 864.654V867.533ZM727.816 864.375C727.816 863.079 727.637 862.137 727.279 861.55C726.928 860.955 726.376 860.658 725.624 860.658C724.894 860.658 724.353 860.941 724.002 861.507C723.659 862.065 723.476 862.943 723.454 864.139V867.941C723.454 869.216 723.626 870.165 723.97 870.788C724.321 871.404 724.88 871.712 725.646 871.712C726.405 871.712 726.953 871.415 727.289 870.82C727.626 870.226 727.801 869.316 727.816 868.092V864.375ZM742.21 868.113H743.983V870.616H742.21V874H739.106V870.616H732.693L732.553 868.661L739.074 858.359H742.21V868.113ZM735.647 868.113H739.106V862.592L738.902 862.946L735.647 868.113Z" fill="white"/>
</g>
</g>
</g>
<defs>
<filter id="filter0_d" x="0" y="0" width="1133" height="2008" filterUnits="userSpaceOnUse" color-interpolation-filters="sRGB">
<feFlood flood-opacity="0" result="BackgroundImageFix"/>
<feColorMatrix in="SourceAlpha" type="matrix" values="0 0 0 0 0 0 0 0 0 0 0 0 0 0 0 0 0 0 127 0"/>
<feOffset dy="4"/>
<feGaussianBlur stdDeviation="2"/>
<feColorMatrix type="matrix" values="0 0 0 0 0 0 0 0 0 0 0 0 0 0 0 0 0 0 0.25 0"/>
<feBlend mode="normal" in2="BackgroundImageFix" result="effect1_dropShadow"/>
<feBlend mode="normal" in="SourceGraphic" in2="effect1_dropShadow" result="shape"/>
</filter>
<linearGradient id="paint0_linear" x1="532" y1="1318" x2="532" y2="1348" gradientUnits="userSpaceOnUse">
<stop stop-color="white"/>
<stop offset="1" stop-color="white" stop-opacity="0"/>
</linearGradient>
<clipPath id="clip0">
<rect width="1125" height="2000" fill="white" transform="translate(4)"/>
</clipPath>
</defs>
</svg>
